<svg xmlns="http://www.w3.org/2000/svg" xmlns:svg="http://www.w3.org/2000/svg" id="svg8" width="216.628" height="64.322" version="1.1" viewBox="0 0 216.628 64.322"><metadata id="metadata5"/><g id="layer1" transform="translate(-311.89229,-423.42151)"><path style="fill:#bdc2ca;fill-opacity:1;fill-rule:nonzero;stroke:none" id="path540" d="m 109.48,249.11 h 101.071 v 53.242 H 109.48 Z" transform="matrix(1.3685445,0,0,-1.208097,193.35097,788.69205)"/><path style="fill:#231f20;fill-opacity:1;fill-rule:evenodd;stroke:none" id="path556" d="m 111.398,281.097 3.709,-1.885 -3.709,-2.008 v 3.893" transform="matrix(1.3333333,0,0,-1.3333333,201.36034,826.55751)"/><path style="fill:none;stroke:#231f20;stroke-width:.331;stroke-linecap:butt;stroke-linejoin:miter;stroke-miterlimit:11.5;stroke-dasharray:none;stroke-opacity:1" id="path558" d="m 111.398,281.097 3.709,-1.885 -3.709,-2.008 z" transform="matrix(1.3333333,0,0,-1.3333333,201.36034,826.55751)"/><path style="fill:none;stroke:#231f20;stroke-width:.745;stroke-linecap:butt;stroke-linejoin:miter;stroke-miterlimit:14.3;stroke-dasharray:none;stroke-opacity:1" id="path668" d="m 133.079,279.147 21.4857,0.001" transform="matrix(1.0011605,0,0,-1.5336943,245.56556,882.56252)"/><g id="g3810" transform="translate(10.999553)"><path style="fill:#231f20;fill-opacity:1;fill-rule:evenodd;stroke:none" id="path670" d="m 140.498,281.097 3.709,-1.885 -3.709,-2.008 v 3.893" transform="matrix(1.3333333,0,0,-1.3333333,201.36034,826.55751)"/><path style="fill:none;stroke:#231f20;stroke-width:.331;stroke-linecap:butt;stroke-linejoin:miter;stroke-miterlimit:11.5;stroke-dasharray:none;stroke-opacity:1" id="path672" d="m 140.498,281.097 3.709,-1.885 -3.709,-2.008 z" transform="matrix(1.3333333,0,0,-1.3333333,201.23322,826.55215)"/></g><path style="fill:none;stroke:#231f20;stroke-width:.745;stroke-linecap:butt;stroke-linejoin:miter;stroke-miterlimit:14.3;stroke-dasharray:none;stroke-opacity:1" id="path674" d="m 169.101,279.134 44.27708,0.002" transform="matrix(1.3333333,0,0,-1.3333333,201.36034,826.55751)"/><path style="fill:#231f20;fill-opacity:1;fill-rule:evenodd;stroke:none" id="path676" d="m 212.127,281.097 3.709,-1.885 -3.709,-2.008 v 3.893" transform="matrix(1.3333333,0,0,-1.3333333,201.36034,826.55751)"/><path style="fill:none;stroke:#231f20;stroke-width:.331;stroke-linecap:butt;stroke-linejoin:miter;stroke-miterlimit:11.5;stroke-dasharray:none;stroke-opacity:1" id="path678" d="m 212.127,281.097 3.709,-1.885 -3.709,-2.008 z" transform="matrix(1.3333333,0,0,-1.3333333,201.36034,826.55751)"/><path style="fill:#231f20;fill-opacity:1;fill-rule:evenodd;stroke:none" id="path680" d="m 185.618,281.097 3.708,-1.885 -3.708,-2.008 v 3.893" transform="matrix(1.3333333,0,0,-1.3333333,201.36034,826.55751)"/><path style="fill:none;stroke:#231f20;stroke-width:.331;stroke-linecap:butt;stroke-linejoin:miter;stroke-miterlimit:11.5;stroke-dasharray:none;stroke-opacity:1" id="path682" d="m 185.618,281.097 3.708,-1.885 -3.708,-2.008 z" transform="matrix(1.3333333,0,0,-1.3333333,201.36034,826.55751)"/><g id="g4192"><path style="fill:#fff;fill-opacity:1;fill-rule:nonzero;stroke:none" id="path704" d="m 189.406,272.863 h 14.152 v 14.105 h -14.152 z" transform="matrix(1.3333333,0,0,-1.3333333,201.36034,826.55751)"/><path style="fill:none;stroke:#231f20;stroke-width:.503;stroke-linecap:butt;stroke-linejoin:miter;stroke-miterlimit:11.5;stroke-dasharray:none;stroke-opacity:1" id="path706" d="m 189.406,286.968 h 14.152 v -14.105 h -14.152 z" transform="matrix(1.3333333,0,0,-1.3333333,201.36034,826.55751)"/><path style="fill:#ea2d2d;fill-opacity:1;fill-rule:nonzero;stroke:none" id="path708" d="m 191.493,275.103 h 6.665 v 7.1263 h -6.665 z" transform="matrix(1.3333333,0,0,-1.3333333,201.36034,826.55751)"/><path style="fill:none;stroke:#fff;stroke-width:.326;stroke-linecap:butt;stroke-linejoin:miter;stroke-miterlimit:14.3;stroke-dasharray:none;stroke-opacity:1" id="path710" d="m 191.493,282.23 h 6.665 v -7.1263 h -6.665 z" transform="matrix(1.3333333,0,0,-1.3333333,201.36034,826.55751)"/><path style="fill:#ea2d2d;fill-opacity:1;fill-rule:evenodd;stroke:none" id="path712" d="m 195.266,278.667 c 0,-0.244 -0.198,-0.442 -0.441,-0.442 -0.243,0 -0.442,0.198 -0.442,0.442 0,0.243 0.199,0.441 0.442,0.441 0.243,0 0.441,-0.198 0.441,-0.441" transform="matrix(1.3333333,0,0,-1.3333333,201.36034,826.55751)"/><path style="fill:none;stroke:#fff;stroke-width:.326;stroke-linecap:butt;stroke-linejoin:miter;stroke-miterlimit:14.3;stroke-dasharray:none;stroke-opacity:1" id="path714" d="m 195.266,278.667 c 0,-0.244 -0.198,-0.442 -0.441,-0.442 -0.243,0 -0.442,0.198 -0.442,0.442 0,0.243 0.199,0.441 0.442,0.441 0.243,0 0.441,-0.198 0.441,-0.441 z" transform="matrix(1.3333333,0,0,-1.3333333,201.36034,826.55751)"/><path style="fill:#ea2d2d;fill-opacity:1;fill-rule:evenodd;stroke:none" id="path716" d="m 194.667,284.992 h 6.668 l -3.204,-2.746 h -6.667" transform="matrix(1.3333333,0,0,-1.3333333,201.36034,826.55751)"/><path style="fill:none;stroke:#fff;stroke-width:.326;stroke-linecap:butt;stroke-linejoin:round;stroke-miterlimit:14.3;stroke-dasharray:none;stroke-opacity:1" id="path718" d="m 194.667,284.992 h 6.668 l -3.204,-2.746 h -6.667 z" transform="matrix(1.3333333,0,0,-1.3333333,201.36034,826.55751)"/><path style="fill:#ea2d2d;fill-opacity:1;fill-rule:evenodd;stroke:none" id="path720" d="m 198.157,282.276 3.331,2.844 v -7.126 l -3.331,-2.844" transform="matrix(1.3333333,0,0,-1.3333333,201.36034,826.55751)"/><path style="fill:none;stroke:#fff;stroke-width:.326;stroke-linecap:butt;stroke-linejoin:round;stroke-miterlimit:14.3;stroke-dasharray:none;stroke-opacity:1" id="path722" d="m 198.157,282.276 3.331,2.844 v -7.126 l -3.331,-2.844 z" transform="matrix(1.3333333,0,0,-1.3333333,201.36034,826.55751)"/><path style="fill:#ea2d2d;fill-opacity:1;fill-rule:evenodd;stroke:none" id="path724" d="m 199.208,277.425 c 0,-0.243 -0.113,-0.539 -0.254,-0.659 -0.141,-0.119 -0.254,-0.02 -0.254,0.224 0,0.244 0.113,0.538 0.254,0.659 0.141,0.121 0.254,0.02 0.254,-0.224" transform="matrix(1.3333333,0,0,-1.3333333,201.36034,826.55751)"/><path style="fill:none;stroke:#fff;stroke-width:.326;stroke-linecap:butt;stroke-linejoin:miter;stroke-miterlimit:14.3;stroke-dasharray:none;stroke-opacity:1" id="path726" d="m 199.208,277.425 c 0,-0.243 -0.113,-0.539 -0.254,-0.659 -0.141,-0.119 -0.254,-0.02 -0.254,0.224 0,0.244 0.113,0.538 0.254,0.659 0.141,0.121 0.254,0.02 0.254,-0.224 z" transform="matrix(1.3333333,0,0,-1.3333333,201.36034,826.55751)"/><path style="fill:#ea2d2d;fill-opacity:1;fill-rule:evenodd;stroke:none" id="path728" d="m 199.989,280.322 c 0,-0.244 -0.114,-0.538 -0.254,-0.659 -0.141,-0.12 -0.254,-0.02 -0.254,0.223 0,0.244 0.113,0.539 0.254,0.66 0.14,0.12 0.254,0.02 0.254,-0.224" transform="matrix(1.3333333,0,0,-1.3333333,201.36034,826.55751)"/><path style="fill:none;stroke:#fff;stroke-width:.326;stroke-linecap:butt;stroke-linejoin:miter;stroke-miterlimit:14.3;stroke-dasharray:none;stroke-opacity:1" id="path730" d="m 199.989,280.322 c 0,-0.244 -0.114,-0.538 -0.254,-0.659 -0.141,-0.12 -0.254,-0.02 -0.254,0.223 0,0.244 0.113,0.539 0.254,0.66 0.14,0.12 0.254,0.02 0.254,-0.224 z" transform="matrix(1.3333333,0,0,-1.3333333,201.36034,826.55751)"/><path style="fill:#ea2d2d;fill-opacity:1;fill-rule:evenodd;stroke:none" id="path732" d="m 200.761,282.977 c 0,-0.244 -0.113,-0.539 -0.254,-0.659 -0.141,-0.121 -0.254,-0.021 -0.254,0.223 0,0.244 0.113,0.539 0.254,0.659 0.141,0.12 0.254,0.021 0.254,-0.223" transform="matrix(1.3333333,0,0,-1.3333333,201.36034,826.55751)"/><path style="fill:none;stroke:#fff;stroke-width:.326;stroke-linecap:butt;stroke-linejoin:miter;stroke-miterlimit:14.3;stroke-dasharray:none;stroke-opacity:1" id="path734" d="m 200.761,282.977 c 0,-0.244 -0.113,-0.539 -0.254,-0.659 -0.141,-0.121 -0.254,-0.021 -0.254,0.223 0,0.244 0.113,0.539 0.254,0.659 0.141,0.12 0.254,0.021 0.254,-0.223 z" transform="matrix(1.3333333,0,0,-1.3333333,201.36034,826.55751)"/><path style="fill:#ea2d2d;fill-opacity:1;fill-rule:evenodd;stroke:none" id="path736" d="m 195.77,284.251 c -0.15,-0.119 -0.453,-0.217 -0.678,-0.218 -0.224,-0.001 -0.285,0.095 -0.136,0.214 0.149,0.12 0.453,0.217 0.677,0.219 0.225,10e-4 0.286,-0.095 0.137,-0.215" transform="matrix(1.3333333,0,0,-1.3333333,201.36034,826.55751)"/><path style="fill:none;stroke:#fff;stroke-width:.326;stroke-linecap:butt;stroke-linejoin:miter;stroke-miterlimit:14.3;stroke-dasharray:none;stroke-opacity:1" id="path738" d="m 195.77,284.251 c -0.15,-0.119 -0.453,-0.217 -0.678,-0.218 -0.224,-0.001 -0.285,0.095 -0.136,0.214 0.149,0.12 0.453,0.217 0.677,0.219 0.225,10e-4 0.286,-0.095 0.137,-0.215 z" transform="matrix(1.3333333,0,0,-1.3333333,201.36034,826.55751)"/><path style="fill:#ea2d2d;fill-opacity:1;fill-rule:evenodd;stroke:none" id="path740" d="m 198.199,283.252 c -0.149,-0.12 -0.453,-0.217 -0.677,-0.217 -0.225,-0.002 -0.285,0.094 -0.136,0.213 0.148,0.12 0.452,0.217 0.676,0.219 0.225,0 0.287,-0.095 0.137,-0.215" transform="matrix(1.3333333,0,0,-1.3333333,201.36034,826.55751)"/><path style="fill:none;stroke:#fff;stroke-width:.326;stroke-linecap:butt;stroke-linejoin:miter;stroke-miterlimit:14.3;stroke-dasharray:none;stroke-opacity:1" id="path742" d="m 198.199,283.252 c -0.149,-0.12 -0.453,-0.217 -0.677,-0.217 -0.225,-0.002 -0.285,0.094 -0.136,0.213 0.148,0.12 0.452,0.217 0.676,0.219 0.225,0 0.287,-0.095 0.137,-0.215 z" transform="matrix(1.3333333,0,0,-1.3333333,201.36034,826.55751)"/></g><path style="fill:#fff;fill-opacity:1;fill-rule:nonzero;stroke:none" id="path756" d="m 115.067,269.496 h 22.378 v 20.075 h -22.378 z" transform="matrix(1.3333333,0,0,-1.3333333,201.36034,826.55751)"/><path style="fill:none;stroke:#1c2123;stroke-width:.372;stroke-linecap:butt;stroke-linejoin:miter;stroke-miterlimit:14.3;stroke-dasharray:none;stroke-opacity:1" id="path758" d="m 115.067,289.571 h 22.378 v -20.075 h -22.378 z" transform="matrix(1.3333333,0,0,-1.3333333,201.36034,826.55751)"/><path style="fill:#ea2d2d;fill-opacity:1;fill-rule:evenodd;stroke:none" id="path760" d="m 123.646,277.062 c -3.23,0 -5.852,1.143 -5.852,2.552 0,1.408 2.622,2.551 5.852,2.551 3.23,0 5.852,-1.143 5.852,-2.551 0,-1.409 -2.622,-2.552 -5.852,-2.552" transform="matrix(1.3333333,0,0,-1.3333333,201.36034,826.55751)"/><path style="fill:none;stroke:#ea2d2d;stroke-width:.635;stroke-linecap:butt;stroke-linejoin:miter;stroke-miterlimit:11.5;stroke-dasharray:none;stroke-opacity:1" id="path762" d="m 123.646,277.062 c -3.23,0 -5.852,1.143 -5.852,2.552 0,1.408 2.622,2.551 5.852,2.551 3.23,0 5.852,-1.143 5.852,-2.551 0,-1.409 -2.622,-2.552 -5.852,-2.552 z" transform="matrix(1.3333333,0,0,-1.3333333,201.36034,826.55751)"/><path style="fill:#fff;fill-opacity:1;fill-rule:evenodd;stroke:none" id="path764" d="m 132.187,277.179 c -1.247,0 -2.261,1.143 -2.261,2.552 0,1.408 1.014,2.552 2.261,2.552 1.249,0 2.262,-1.144 2.262,-2.552 0,-1.409 -1.013,-2.552 -2.262,-2.552" transform="matrix(1.3333333,0,0,-1.3333333,201.36034,826.55751)"/><path style="fill:none;stroke:#ea2d2d;stroke-width:.635;stroke-linecap:butt;stroke-linejoin:miter;stroke-miterlimit:11.5;stroke-dasharray:none;stroke-opacity:1" id="path766" d="m 132.187,277.179 c -1.247,0 -2.261,1.143 -2.261,2.552 0,1.408 1.014,2.552 2.261,2.552 1.249,0 2.262,-1.144 2.262,-2.552 0,-1.409 -1.013,-2.552 -2.262,-2.552 z" transform="matrix(1.3333333,0,0,-1.3333333,201.36034,826.55751)"/><path style="fill:#fff;fill-opacity:1;fill-rule:evenodd;stroke:none" id="path768" d="m 123.63,282.403 c -3.231,0 -5.853,0.828 -5.853,1.847 0,1.02 2.622,1.848 5.853,1.848 3.231,0 5.853,-0.828 5.853,-1.848 0,-1.019 -2.622,-1.847 -5.853,-1.847" transform="matrix(1.3333333,0,0,-1.3333333,201.36034,826.55751)"/><path style="fill:none;stroke:#ea2d2d;stroke-width:.952;stroke-linecap:butt;stroke-linejoin:miter;stroke-miterlimit:14.3;stroke-dasharray:none;stroke-opacity:1" id="path770" d="m 123.63,282.403 c -3.231,0 -5.853,0.828 -5.853,1.847 0,1.02 2.622,1.848 5.853,1.848 3.231,0 5.853,-0.828 5.853,-1.848 0,-1.019 -2.622,-1.847 -5.853,-1.847 z" transform="matrix(1.3333333,0,0,-1.3333333,201.36034,826.55751)"/><path style="fill:#ea2d2d;fill-opacity:1;fill-rule:evenodd;stroke:none" id="path772" d="m 132.144,282.523 c -1.216,0 -2.204,0.828 -2.204,1.848 0,1.021 0.988,1.848 2.204,1.848 1.217,0 2.205,-0.827 2.205,-1.848 0,-1.02 -0.988,-1.848 -2.205,-1.848" transform="matrix(1.3333333,0,0,-1.3333333,201.36034,826.55751)"/><path style="fill:none;stroke:#ea2d2d;stroke-width:.952;stroke-linecap:butt;stroke-linejoin:miter;stroke-miterlimit:14.3;stroke-dasharray:none;stroke-opacity:1" id="path774" d="m 132.144,282.523 c -1.216,0 -2.204,0.828 -2.204,1.848 0,1.021 0.988,1.848 2.204,1.848 1.217,0 2.205,-0.827 2.205,-1.848 0,-1.02 -0.988,-1.848 -2.205,-1.848 z" transform="matrix(1.3333333,0,0,-1.3333333,201.36034,826.55751)"/><path style="fill:#fff;fill-opacity:1;fill-rule:evenodd;stroke:none" id="path776" d="m 123.63,273.111 c -3.231,0 -5.853,0.828 -5.853,1.848 0,1.02 2.622,1.847 5.853,1.847 3.231,0 5.853,-0.827 5.853,-1.847 0,-1.02 -2.622,-1.848 -5.853,-1.848" transform="matrix(1.3333333,0,0,-1.3333333,201.36034,826.55751)"/><path style="fill:none;stroke:#ea2d2d;stroke-width:.952;stroke-linecap:butt;stroke-linejoin:miter;stroke-miterlimit:14.3;stroke-dasharray:none;stroke-opacity:1" id="path778" d="m 123.63,273.111 c -3.231,0 -5.853,0.828 -5.853,1.848 0,1.02 2.622,1.847 5.853,1.847 3.231,0 5.853,-0.827 5.853,-1.847 0,-1.02 -2.622,-1.848 -5.853,-1.848 z" transform="matrix(1.3333333,0,0,-1.3333333,201.36034,826.55751)"/><path style="fill:#ea2d2d;fill-opacity:1;fill-rule:evenodd;stroke:none" id="path780" d="m 132.144,273.232 c -1.216,0 -2.204,0.828 -2.204,1.848 0,1.02 0.988,1.847 2.204,1.847 1.217,0 2.205,-0.827 2.205,-1.847 0,-1.02 -0.988,-1.848 -2.205,-1.848" transform="matrix(1.3333333,0,0,-1.3333333,201.36034,826.55751)"/><path style="fill:none;stroke:#ea2d2d;stroke-width:.952;stroke-linecap:butt;stroke-linejoin:miter;stroke-miterlimit:14.3;stroke-dasharray:none;stroke-opacity:1" id="path782" d="m 132.144,273.232 c -1.216,0 -2.204,0.828 -2.204,1.848 0,1.02 0.988,1.847 2.204,1.847 1.217,0 2.205,-0.827 2.205,-1.847 0,-1.02 -0.988,-1.848 -2.205,-1.848 z" transform="matrix(1.3333333,0,0,-1.3333333,201.36034,826.55751)"/><g id="g3897" transform="translate(-6)"><path style="fill:#fff;fill-opacity:1;fill-rule:nonzero;stroke:none" id="path750" d="M 157.469,273.112 H 176.38 V 287.31 H 157.469 Z" transform="matrix(1.3333333,0,0,-1.3333333,201.36034,826.55751)"/><path style="fill:none;stroke:#231f20;stroke-width:.503;stroke-linecap:butt;stroke-linejoin:miter;stroke-miterlimit:11.5;stroke-dasharray:none;stroke-opacity:1" id="path752" d="m 157.469,287.31 h 18.911 v -14.198 h -18.911 z m 9.456,-3.164 -0.003,-8.674 m 7,2.661 h -13.997" transform="matrix(1.3333333,0,0,-1.3333333,201.36034,826.55751)"/><path style="fill:none;stroke:#ea2d2d;stroke-width:1.006;stroke-linecap:butt;stroke-linejoin:miter;stroke-miterlimit:14.3;stroke-dasharray:none;stroke-opacity:1" id="path754" d="m 159.828,278.462 c 0,0 4.076,-0.214 7.136,0.3 3.239,0.542 5.874,3.62 6.758,5.759" transform="matrix(1.3333333,0,0,-1.3333333,201.36034,826.55751)"/><text style="font-variant:normal;font-weight:400;font-size:6px;font-family:HelveticaNeue;-inkscape-font-specification:HelveticaNeue-Roman;writing-mode:lr-tb;fill:#231f20;fill-opacity:1;fill-rule:nonzero;stroke:none" id="text1120" transform="matrix(1.3333333,0,0,1.3333333,413.35567,451.43299)" xml:space="preserve"><tspan id="tspan1118" x="0" y="0">e</tspan></text><text style="font-style:italic;font-variant:normal;font-size:4px;font-family:HelveticaNeue;-inkscape-font-specification:HelveticaNeue-Italic;writing-mode:lr-tb;fill:#231f20;fill-opacity:1;fill-rule:nonzero;stroke:none" id="text1124" transform="matrix(1.3333333,0,0,1.3333333,417.6518,448.76632)" xml:space="preserve"><tspan id="tspan1122" x="0" y="0">x</tspan></text></g><text style="font-variant:normal;font-weight:400;font-size:6px;font-family:HelveticaNeue;-inkscape-font-specification:HelveticaNeue-Roman;writing-mode:lr-tb;fill:#231f20;fill-opacity:1;fill-rule:nonzero;stroke:none" id="text1224" transform="matrix(1.3333333,0,0,1.3333333,396.34234,437.41574)" xml:space="preserve"><tspan id="tspan1222" x="0 4.332 7.776 11.112 12.444 13.776 17.112 20.334 23.556 25.554 26.886 28.776" y="0"><tspan style="font-weight:700" id="tspan3704">N</tspan>onlinearity</tspan></text><text style="font-variant:normal;font-weight:400;font-size:6px;font-family:HelveticaNeue;-inkscape-font-specification:HelveticaNeue-Roman;writing-mode:lr-tb;fill:#231f20;fill-opacity:1;fill-rule:nonzero;stroke:none" id="text1224-5" x="8.724" y="0" transform="matrix(1.3333333,0,0,1.3333333,357.74167,437.45574)" xml:space="preserve"><tspan id="tspan3630" x="8.724" y="0" style="text-align:center;text-anchor:middle"><tspan style="font-weight:700" id="tspan3702">L</tspan>inear filter</tspan></text><path style="font-variation-settings:normal;opacity:1;vector-effect:none;fill:none;fill-opacity:1;stroke:#231f20;stroke-width:.993333;stroke-linecap:butt;stroke-linejoin:miter;stroke-miterlimit:14.3;stroke-dasharray:none;stroke-dashoffset:0;stroke-opacity:1;-inkscape-stroke:none;stop-color:#000;stop-opacity:1" id="path2749" d="M 8.5146025,41.393369 H -4.8831562" transform="translate(341.17034,413.00646)"/><g id="g3499" transform="translate(-7.29378)"><path style="font-variation-settings:normal;vector-effect:none;fill:none;fill-opacity:1;stroke:#231f20;stroke-width:.993333;stroke-linecap:butt;stroke-linejoin:miter;stroke-miterlimit:14.3;stroke-dasharray:none;stroke-dashoffset:0;stroke-opacity:1;-inkscape-stroke:none;stop-color:#000" id="path2749-7" d="M 8.5146025,41.393369 H -4.8831562" transform="matrix(0,-0.79576698,1,0,459.85741,456.09049)"/><path style="font-variation-settings:normal;vector-effect:none;fill:none;fill-opacity:1;stroke:#231f20;stroke-width:.993333;stroke-linecap:butt;stroke-linejoin:miter;stroke-miterlimit:14.3;stroke-dasharray:none;stroke-dashoffset:0;stroke-opacity:1;-inkscape-stroke:none;stop-color:#000" id="path2749-7-5" d="M 8.5146025,41.393369 H -4.8831562" transform="matrix(0,-0.79576698,1,0,461.39846,456.09049)"/><path style="font-variation-settings:normal;vector-effect:none;fill:none;fill-opacity:1;stroke:#231f20;stroke-width:.993333;stroke-linecap:butt;stroke-linejoin:miter;stroke-miterlimit:14.3;stroke-dasharray:none;stroke-dashoffset:0;stroke-opacity:1;-inkscape-stroke:none;stop-color:#000" id="path2749-7-3" d="M 8.5146025,41.393369 H -4.8831562" transform="matrix(0,-0.79576698,1,0,465.7591,456.09049)"/></g><text style="font-variant:normal;font-weight:400;font-size:6px;font-family:HelveticaNeue;-inkscape-font-specification:HelveticaNeue-Roman;writing-mode:lr-tb;fill:#231f20;fill-opacity:1;fill-rule:nonzero;stroke:none" id="text1224-2" transform="matrix(1.3333333,0,0,1.3333333,448.67634,437.23174)" xml:space="preserve"><tspan id="tspan1222-9" x="0" y="0"><tspan style="font-weight:700" id="tspan3706">P</tspan>oisson</tspan></text><text style="font-variant:normal;font-weight:400;font-size:6px;font-family:HelveticaNeue;-inkscape-font-specification:HelveticaNeue-Roman;writing-mode:lr-tb;fill:#231f20;fill-opacity:1;fill-rule:nonzero;stroke:none" id="text1224-1" transform="matrix(1.3333333,0,0,1.3333333,484.88785,437.41574)" xml:space="preserve"><tspan id="tspan1222-2" x="0" y="0">Spikes</tspan></text><text style="font-variant:normal;font-weight:400;font-size:6px;font-family:HelveticaNeue;-inkscape-font-specification:HelveticaNeue-Roman;writing-mode:lr-tb;fill:#231f20;fill-opacity:1;fill-rule:nonzero;stroke:none" id="text1224-7" transform="matrix(1.3333333,0,0,1.3333333,311.57229,456.29583)" xml:space="preserve"><tspan id="tspan1222-0" x="0" y="0">Input</tspan></text><text style="font-variant:normal;font-weight:400;font-size:6px;font-family:HelveticaNeue;-inkscape-font-specification:HelveticaNeue-Roman;writing-mode:lr-tb;fill:#231f20;fill-opacity:1;fill-rule:nonzero;stroke:none" id="text1224-9" transform="matrix(1.3333333,0,0,1.3333333,344.7129,485.45121)" xml:space="preserve"><tspan id="tspan1222-3" x="0" y="0">GLM model</tspan></text></g></svg>